<mxfile host="app.diagrams.net" modified="2023-12-09T09:49:27.485Z" agent="Mozilla/5.0 (Windows NT 10.0; Win64; x64) AppleWebKit/537.36 (KHTML, like Gecko) Chrome/119.0.0.0 Safari/537.36" version="22.1.7" etag="I0OhXZaKhek4CW1fBn31" type="github">
  <diagram name="第 1 页" id="InrifFGwT2YDKcZhWhFO">
    <mxGraphModel>
      <root>
        <mxCell id="0" />
        <mxCell id="1" parent="0" />
      </root>
    </mxGraphModel>
  </diagram>
</mxfile>
